<mxfile host="app.diagrams.net" modified="2023-11-14T00:51:06.967Z" agent="Mozilla/5.0 (Windows NT 10.0; Win64; x64) AppleWebKit/537.36 (KHTML, like Gecko) Chrome/119.0.0.0 Safari/537.36" etag="KCui8Xht8pCI2qY2-RGJ" version="22.1.0" type="github">
  <diagram id="rPfp-5fZGcVewHDf8rNF" name="第1頁">
    <mxGraphModel dx="989" dy="509" grid="0" gridSize="1" guides="1" tooltips="1" connect="1" arrows="1" fold="1" page="1" pageScale="1" pageWidth="1169" pageHeight="827" math="0" shadow="0">
      <root>
        <mxCell id="0" />
        <mxCell id="1" parent="0" />
        <mxCell id="mcRViTKh0tjIpPPXjqMf-64" style="edgeStyle=orthogonalEdgeStyle;rounded=0;orthogonalLoop=1;jettySize=auto;html=1;exitX=1;exitY=0.5;exitDx=0;exitDy=0;fontFamily=Helvetica;fontSize=12;fontColor=default;entryX=0;entryY=0.5;entryDx=0;entryDy=0;endArrow=none;endFill=0;fillColor=#e51400;strokeColor=#B20000;jumpStyle=arc;jumpSize=5;movable=0;resizable=0;rotatable=0;deletable=0;editable=0;locked=1;connectable=0;" parent="1" source="mcRViTKh0tjIpPPXjqMf-42" target="mcRViTKh0tjIpPPXjqMf-49" edge="1">
          <mxGeometry relative="1" as="geometry">
            <mxPoint x="526" y="176" as="targetPoint" />
            <Array as="points">
              <mxPoint x="528" y="133" />
              <mxPoint x="528" y="198" />
              <mxPoint x="436" y="198" />
              <mxPoint x="436" y="230" />
            </Array>
          </mxGeometry>
        </mxCell>
        <mxCell id="mcRViTKh0tjIpPPXjqMf-75" style="edgeStyle=orthogonalEdgeStyle;rounded=0;orthogonalLoop=1;jettySize=auto;html=1;fontFamily=Helvetica;fontSize=12;fontColor=default;endArrow=none;endFill=0;jumpStyle=arc;jumpSize=5;movable=0;resizable=0;rotatable=0;deletable=0;editable=0;locked=1;connectable=0;" parent="1" source="mcRViTKh0tjIpPPXjqMf-73" edge="1">
          <mxGeometry relative="1" as="geometry">
            <mxPoint x="143" y="133" as="targetPoint" />
          </mxGeometry>
        </mxCell>
        <mxCell id="mcRViTKh0tjIpPPXjqMf-76" style="edgeStyle=orthogonalEdgeStyle;rounded=0;orthogonalLoop=1;jettySize=auto;html=1;fontFamily=Helvetica;fontSize=12;fontColor=default;entryX=0;entryY=0.5;entryDx=0;entryDy=0;endArrow=none;endFill=0;jumpStyle=arc;jumpSize=5;movable=0;resizable=0;rotatable=0;deletable=0;editable=0;locked=1;connectable=0;" parent="1" source="mcRViTKh0tjIpPPXjqMf-73" target="mcRViTKh0tjIpPPXjqMf-24" edge="1">
          <mxGeometry relative="1" as="geometry">
            <mxPoint x="190" y="170" as="targetPoint" />
            <Array as="points">
              <mxPoint x="190" y="220" />
            </Array>
          </mxGeometry>
        </mxCell>
        <mxCell id="mcRViTKh0tjIpPPXjqMf-73" value="" style="shape=waypoint;sketch=0;fillStyle=solid;size=6;pointerEvents=1;points=[];fillColor=none;resizable=0;rotatable=0;perimeter=centerPerimeter;snapToPoint=1;align=center;verticalAlign=top;fontFamily=Helvetica;fontSize=12;fontColor=default;movable=0;deletable=0;editable=0;locked=1;connectable=0;container=0;" parent="1" vertex="1">
          <mxGeometry x="180" y="123" width="20" height="20" as="geometry" />
        </mxCell>
        <mxCell id="mcRViTKh0tjIpPPXjqMf-74" style="edgeStyle=orthogonalEdgeStyle;rounded=0;orthogonalLoop=1;jettySize=auto;html=1;fontFamily=Helvetica;fontSize=12;fontColor=default;endArrow=none;endFill=0;jumpStyle=arc;jumpSize=5;movable=0;resizable=0;rotatable=0;deletable=0;editable=0;locked=1;connectable=0;" parent="1" source="mcRViTKh0tjIpPPXjqMf-15" edge="1">
          <mxGeometry relative="1" as="geometry">
            <mxPoint x="190" y="133" as="targetPoint" />
          </mxGeometry>
        </mxCell>
        <mxCell id="mcRViTKh0tjIpPPXjqMf-78" style="edgeStyle=orthogonalEdgeStyle;rounded=0;orthogonalLoop=1;jettySize=auto;html=1;entryX=0;entryY=0.5;entryDx=0;entryDy=0;fontFamily=Helvetica;fontSize=12;fontColor=default;endArrow=none;endFill=0;jumpStyle=arc;jumpSize=5;movable=0;resizable=0;rotatable=0;deletable=0;editable=0;locked=1;connectable=0;" parent="1" source="mcRViTKh0tjIpPPXjqMf-77" target="mcRViTKh0tjIpPPXjqMf-70" edge="1">
          <mxGeometry relative="1" as="geometry">
            <Array as="points">
              <mxPoint x="190" y="304" />
            </Array>
          </mxGeometry>
        </mxCell>
        <mxCell id="mcRViTKh0tjIpPPXjqMf-77" value="" style="shape=waypoint;sketch=0;fillStyle=solid;size=6;pointerEvents=1;points=[];fillColor=none;resizable=0;rotatable=0;perimeter=centerPerimeter;snapToPoint=1;align=center;verticalAlign=top;fontFamily=Helvetica;fontSize=12;fontColor=default;movable=0;deletable=0;editable=0;locked=1;connectable=0;container=0;" parent="1" vertex="1">
          <mxGeometry x="180" y="210" width="20" height="20" as="geometry" />
        </mxCell>
        <mxCell id="mcRViTKh0tjIpPPXjqMf-80" style="edgeStyle=orthogonalEdgeStyle;rounded=0;orthogonalLoop=1;jettySize=auto;html=1;entryX=0;entryY=0.5;entryDx=0;entryDy=0;fontFamily=Helvetica;fontSize=12;fontColor=default;endArrow=none;endFill=0;jumpStyle=arc;jumpSize=5;movable=0;resizable=0;rotatable=0;deletable=0;editable=0;locked=1;connectable=0;" parent="1" source="mcRViTKh0tjIpPPXjqMf-79" target="mcRViTKh0tjIpPPXjqMf-51" edge="1">
          <mxGeometry relative="1" as="geometry" />
        </mxCell>
        <mxCell id="mcRViTKh0tjIpPPXjqMf-79" value="" style="shape=waypoint;sketch=0;fillStyle=solid;size=6;pointerEvents=1;points=[];fillColor=none;resizable=0;rotatable=0;perimeter=centerPerimeter;snapToPoint=1;align=center;verticalAlign=top;fontFamily=Helvetica;fontSize=12;fontColor=default;movable=0;deletable=0;editable=0;locked=1;connectable=0;container=0;" parent="1" vertex="1">
          <mxGeometry x="180" y="192" width="20" height="20" as="geometry" />
        </mxCell>
        <mxCell id="mcRViTKh0tjIpPPXjqMf-82" style="edgeStyle=orthogonalEdgeStyle;rounded=0;orthogonalLoop=1;jettySize=auto;html=1;entryX=0;entryY=0.5;entryDx=0;entryDy=0;fontFamily=Helvetica;fontSize=12;fontColor=default;endArrow=none;endFill=0;jumpStyle=arc;jumpSize=5;movable=0;resizable=0;rotatable=0;deletable=0;editable=0;locked=1;connectable=0;" parent="1" source="mcRViTKh0tjIpPPXjqMf-81" target="mcRViTKh0tjIpPPXjqMf-61" edge="1">
          <mxGeometry relative="1" as="geometry">
            <Array as="points">
              <mxPoint x="412" y="288" />
            </Array>
          </mxGeometry>
        </mxCell>
        <mxCell id="mcRViTKh0tjIpPPXjqMf-81" value="" style="shape=waypoint;sketch=0;fillStyle=solid;size=6;pointerEvents=1;points=[];fillColor=none;resizable=0;rotatable=0;perimeter=centerPerimeter;snapToPoint=1;align=center;verticalAlign=top;fontFamily=Helvetica;fontSize=12;fontColor=default;movable=0;deletable=0;editable=0;locked=1;connectable=0;container=0;" parent="1" vertex="1">
          <mxGeometry x="402" y="200" width="20" height="20" as="geometry" />
        </mxCell>
        <mxCell id="mcRViTKh0tjIpPPXjqMf-85" style="edgeStyle=orthogonalEdgeStyle;rounded=0;orthogonalLoop=1;jettySize=auto;html=1;fontFamily=Helvetica;fontSize=12;fontColor=default;jumpStyle=arc;jumpSize=5;endArrow=none;endFill=0;movable=0;resizable=0;rotatable=0;deletable=0;editable=0;locked=1;connectable=0;" parent="1" edge="1">
          <mxGeometry relative="1" as="geometry">
            <mxPoint x="206" y="160" as="sourcePoint" />
            <mxPoint x="206" y="160" as="targetPoint" />
          </mxGeometry>
        </mxCell>
        <mxCell id="mcRViTKh0tjIpPPXjqMf-89" style="edgeStyle=orthogonalEdgeStyle;rounded=0;orthogonalLoop=1;jettySize=auto;html=1;entryX=0;entryY=0.5;entryDx=0;entryDy=0;fontFamily=Helvetica;fontSize=12;fontColor=default;endArrow=none;endFill=0;jumpStyle=arc;jumpSize=5;movable=0;resizable=0;rotatable=0;deletable=0;editable=0;locked=1;connectable=0;" parent="1" source="mcRViTKh0tjIpPPXjqMf-88" target="mcRViTKh0tjIpPPXjqMf-12" edge="1">
          <mxGeometry relative="1" as="geometry" />
        </mxCell>
        <mxCell id="mcRViTKh0tjIpPPXjqMf-90" style="edgeStyle=orthogonalEdgeStyle;rounded=0;orthogonalLoop=1;jettySize=auto;html=1;entryX=0;entryY=0.5;entryDx=0;entryDy=0;fontFamily=Helvetica;fontSize=12;fontColor=default;endArrow=none;endFill=0;jumpStyle=arc;jumpSize=5;movable=0;resizable=0;rotatable=0;deletable=0;editable=0;locked=1;connectable=0;" parent="1" source="mcRViTKh0tjIpPPXjqMf-91" target="mcRViTKh0tjIpPPXjqMf-21" edge="1">
          <mxGeometry relative="1" as="geometry">
            <Array as="points">
              <mxPoint x="208" y="230" />
            </Array>
          </mxGeometry>
        </mxCell>
        <mxCell id="mcRViTKh0tjIpPPXjqMf-134" style="edgeStyle=orthogonalEdgeStyle;rounded=0;orthogonalLoop=1;jettySize=auto;html=1;fontFamily=Helvetica;fontSize=12;fontColor=default;endArrow=none;endFill=0;jumpStyle=arc;movable=0;resizable=0;rotatable=0;deletable=0;editable=0;locked=1;connectable=0;" parent="1" source="mcRViTKh0tjIpPPXjqMf-88" edge="1">
          <mxGeometry relative="1" as="geometry">
            <mxPoint x="143" y="143" as="targetPoint" />
          </mxGeometry>
        </mxCell>
        <mxCell id="mcRViTKh0tjIpPPXjqMf-88" value="" style="shape=waypoint;sketch=0;fillStyle=solid;size=6;pointerEvents=1;points=[];fillColor=none;resizable=0;rotatable=0;perimeter=centerPerimeter;snapToPoint=1;align=center;verticalAlign=top;fontFamily=Helvetica;fontSize=12;fontColor=default;movable=0;deletable=0;editable=0;locked=1;connectable=0;container=0;" parent="1" vertex="1">
          <mxGeometry x="198" y="133" width="20" height="20" as="geometry" />
        </mxCell>
        <mxCell id="mcRViTKh0tjIpPPXjqMf-92" value="" style="edgeStyle=orthogonalEdgeStyle;rounded=0;orthogonalLoop=1;jettySize=auto;html=1;entryDx=0;entryDy=0;fontFamily=Helvetica;fontSize=12;fontColor=default;endArrow=none;endFill=0;jumpStyle=arc;jumpSize=5;movable=0;resizable=0;rotatable=0;deletable=0;editable=0;locked=1;connectable=0;" parent="1" source="mcRViTKh0tjIpPPXjqMf-88" target="mcRViTKh0tjIpPPXjqMf-91" edge="1">
          <mxGeometry relative="1" as="geometry">
            <mxPoint x="208" y="143" as="sourcePoint" />
            <mxPoint x="224" y="230" as="targetPoint" />
            <Array as="points" />
          </mxGeometry>
        </mxCell>
        <mxCell id="mcRViTKh0tjIpPPXjqMf-95" style="edgeStyle=orthogonalEdgeStyle;rounded=0;orthogonalLoop=1;jettySize=auto;html=1;entryX=0;entryY=0.5;entryDx=0;entryDy=0;fontFamily=Helvetica;fontSize=12;fontColor=default;endArrow=none;endFill=0;jumpStyle=arc;jumpSize=5;movable=0;resizable=0;rotatable=0;deletable=0;editable=0;locked=1;connectable=0;" parent="1" source="mcRViTKh0tjIpPPXjqMf-91" target="mcRViTKh0tjIpPPXjqMf-67" edge="1">
          <mxGeometry relative="1" as="geometry">
            <Array as="points">
              <mxPoint x="208" y="314" />
            </Array>
          </mxGeometry>
        </mxCell>
        <mxCell id="mcRViTKh0tjIpPPXjqMf-91" value="" style="shape=waypoint;sketch=0;fillStyle=solid;size=6;pointerEvents=1;points=[];fillColor=none;resizable=0;rotatable=0;perimeter=centerPerimeter;snapToPoint=1;align=center;verticalAlign=top;fontFamily=Helvetica;fontSize=12;fontColor=default;movable=0;deletable=0;editable=0;locked=1;connectable=0;container=0;" parent="1" vertex="1">
          <mxGeometry x="198" y="220" width="20" height="20" as="geometry" />
        </mxCell>
        <mxCell id="mcRViTKh0tjIpPPXjqMf-96" style="edgeStyle=orthogonalEdgeStyle;rounded=0;orthogonalLoop=1;jettySize=auto;html=1;exitDx=0;exitDy=0;entryX=0;entryY=0.5;entryDx=0;entryDy=0;fontFamily=Helvetica;fontSize=12;fontColor=default;endArrow=none;endFill=0;fillColor=#a20025;strokeColor=#6F0000;jumpStyle=arc;jumpSize=5;movable=0;resizable=0;rotatable=0;deletable=0;editable=0;locked=1;connectable=0;" parent="1" source="mcRViTKh0tjIpPPXjqMf-97" target="mcRViTKh0tjIpPPXjqMf-22" edge="1">
          <mxGeometry relative="1" as="geometry">
            <Array as="points">
              <mxPoint x="215" y="240" />
            </Array>
          </mxGeometry>
        </mxCell>
        <mxCell id="mcRViTKh0tjIpPPXjqMf-98" value="" style="edgeStyle=orthogonalEdgeStyle;rounded=0;orthogonalLoop=1;jettySize=auto;html=1;exitX=1;exitY=0.5;exitDx=0;exitDy=0;entryDx=0;entryDy=0;fontFamily=Helvetica;fontSize=12;fontColor=default;endArrow=none;endFill=0;fillColor=#a20025;strokeColor=#6F0000;jumpStyle=arc;jumpSize=5;movable=0;resizable=0;rotatable=0;deletable=0;editable=0;locked=1;connectable=0;" parent="1" source="mcRViTKh0tjIpPPXjqMf-71" target="mcRViTKh0tjIpPPXjqMf-97" edge="1">
          <mxGeometry relative="1" as="geometry">
            <mxPoint x="323" y="304" as="sourcePoint" />
            <mxPoint x="224" y="240" as="targetPoint" />
            <Array as="points">
              <mxPoint x="343" y="304" />
              <mxPoint x="343" y="287" />
              <mxPoint x="215" y="287" />
            </Array>
          </mxGeometry>
        </mxCell>
        <mxCell id="mcRViTKh0tjIpPPXjqMf-97" value="" style="shape=waypoint;sketch=0;fillStyle=solid;size=6;pointerEvents=1;points=[];fillColor=#a20025;resizable=0;rotatable=0;perimeter=centerPerimeter;snapToPoint=1;align=center;verticalAlign=top;fontFamily=Helvetica;fontSize=12;fontColor=#ffffff;strokeColor=#6F0000;movable=0;deletable=0;editable=0;locked=1;connectable=0;container=0;" parent="1" vertex="1">
          <mxGeometry x="205" y="230" width="20" height="20" as="geometry" />
        </mxCell>
        <mxCell id="mcRViTKh0tjIpPPXjqMf-100" value="" style="edgeStyle=elbowEdgeStyle;elbow=horizontal;endArrow=none;html=1;curved=0;rounded=0;endSize=8;startSize=8;fontFamily=Helvetica;fontSize=12;fontColor=default;entryX=0;entryY=0.5;entryDx=0;entryDy=0;exitX=0.469;exitY=0.025;exitDx=0;exitDy=0;exitPerimeter=0;endFill=0;fillColor=#a20025;strokeColor=#6F0000;jumpStyle=arc;jumpSize=5;movable=0;resizable=0;rotatable=0;deletable=0;editable=0;locked=1;connectable=0;" parent="1" source="mcRViTKh0tjIpPPXjqMf-97" target="mcRViTKh0tjIpPPXjqMf-13" edge="1">
          <mxGeometry width="50" height="50" relative="1" as="geometry">
            <mxPoint x="195" y="195" as="sourcePoint" />
            <mxPoint x="245" y="145" as="targetPoint" />
            <Array as="points">
              <mxPoint x="215" y="196" />
            </Array>
          </mxGeometry>
        </mxCell>
        <mxCell id="mcRViTKh0tjIpPPXjqMf-117" style="edgeStyle=orthogonalEdgeStyle;rounded=0;orthogonalLoop=1;jettySize=auto;html=1;exitDx=0;exitDy=0;entryX=0;entryY=0.5;entryDx=0;entryDy=0;fontFamily=Helvetica;fontSize=12;fontColor=default;endArrow=none;endFill=0;fillColor=#f0a30a;strokeColor=#BD7000;jumpStyle=arc;jumpSize=5;movable=0;resizable=0;rotatable=0;deletable=0;editable=0;locked=1;connectable=0;" parent="1" source="mcRViTKh0tjIpPPXjqMf-147" target="mcRViTKh0tjIpPPXjqMf-60" edge="1">
          <mxGeometry relative="1" as="geometry">
            <Array as="points">
              <mxPoint x="427" y="194" />
              <mxPoint x="427" y="308" />
            </Array>
          </mxGeometry>
        </mxCell>
        <mxCell id="mcRViTKh0tjIpPPXjqMf-119" style="edgeStyle=orthogonalEdgeStyle;rounded=0;orthogonalLoop=1;jettySize=auto;html=1;entryX=0;entryY=0.5;entryDx=0;entryDy=0;fontFamily=Helvetica;fontSize=12;fontColor=default;endArrow=none;endFill=0;jumpStyle=arc;jumpSize=5;movable=0;resizable=0;rotatable=0;deletable=0;editable=0;locked=1;connectable=0;" parent="1" source="mcRViTKh0tjIpPPXjqMf-118" target="mcRViTKh0tjIpPPXjqMf-59" edge="1">
          <mxGeometry relative="1" as="geometry">
            <Array as="points">
              <mxPoint x="208" y="370" />
              <mxPoint x="431" y="370" />
              <mxPoint x="431" y="298" />
            </Array>
          </mxGeometry>
        </mxCell>
        <mxCell id="mcRViTKh0tjIpPPXjqMf-118" value="" style="shape=waypoint;sketch=0;fillStyle=solid;size=6;pointerEvents=1;points=[];fillColor=none;resizable=0;rotatable=0;perimeter=centerPerimeter;snapToPoint=1;align=center;verticalAlign=top;fontFamily=Helvetica;fontSize=12;fontColor=default;movable=0;deletable=0;editable=0;locked=1;connectable=0;container=0;" parent="1" vertex="1">
          <mxGeometry x="198" y="304" width="20" height="20" as="geometry" />
        </mxCell>
        <mxCell id="mcRViTKh0tjIpPPXjqMf-124" style="edgeStyle=orthogonalEdgeStyle;rounded=0;orthogonalLoop=1;jettySize=auto;html=1;entryX=0;entryY=0.5;entryDx=0;entryDy=0;fontFamily=Helvetica;fontSize=12;fontColor=default;endArrow=none;endFill=0;jumpStyle=arc;jumpSize=5;movable=0;resizable=0;rotatable=0;deletable=0;editable=0;locked=1;connectable=0;" parent="1" source="mcRViTKh0tjIpPPXjqMf-120" target="mcRViTKh0tjIpPPXjqMf-48" edge="1">
          <mxGeometry relative="1" as="geometry">
            <Array as="points">
              <mxPoint x="431" y="220" />
            </Array>
          </mxGeometry>
        </mxCell>
        <mxCell id="mcRViTKh0tjIpPPXjqMf-120" value="" style="shape=waypoint;sketch=0;fillStyle=solid;size=6;pointerEvents=1;points=[];fillColor=none;resizable=0;rotatable=0;perimeter=centerPerimeter;snapToPoint=1;align=center;verticalAlign=top;fontFamily=Helvetica;fontSize=12;fontColor=default;movable=0;deletable=0;editable=0;locked=1;connectable=0;container=0;" parent="1" vertex="1">
          <mxGeometry x="421" y="288" width="20" height="20" as="geometry" />
        </mxCell>
        <mxCell id="mcRViTKh0tjIpPPXjqMf-125" style="edgeStyle=orthogonalEdgeStyle;rounded=0;orthogonalLoop=1;jettySize=auto;html=1;exitX=1;exitY=0.5;exitDx=0;exitDy=0;entryX=0;entryY=0.5;entryDx=0;entryDy=0;fontFamily=Helvetica;fontSize=12;fontColor=default;fillColor=#fa6800;strokeColor=#C73500;jumpStyle=arc;jumpSize=5;endArrow=none;endFill=0;movable=0;resizable=0;rotatable=0;deletable=0;editable=0;locked=1;connectable=0;" parent="1" source="mcRViTKh0tjIpPPXjqMf-16" target="mcRViTKh0tjIpPPXjqMf-39" edge="1">
          <mxGeometry relative="1" as="geometry" />
        </mxCell>
        <mxCell id="mcRViTKh0tjIpPPXjqMf-126" style="edgeStyle=orthogonalEdgeStyle;rounded=0;orthogonalLoop=1;jettySize=auto;html=1;exitX=1;exitY=0.5;exitDx=0;exitDy=0;entryX=0;entryY=0.5;entryDx=0;entryDy=0;fontFamily=Helvetica;fontSize=12;fontColor=default;fillColor=#fa6800;strokeColor=#C73500;jumpStyle=arc;jumpSize=5;endArrow=none;endFill=0;movable=0;resizable=0;rotatable=0;deletable=0;editable=0;locked=1;connectable=0;" parent="1" source="mcRViTKh0tjIpPPXjqMf-25" target="mcRViTKh0tjIpPPXjqMf-40" edge="1">
          <mxGeometry relative="1" as="geometry" />
        </mxCell>
        <mxCell id="mcRViTKh0tjIpPPXjqMf-128" style="edgeStyle=orthogonalEdgeStyle;rounded=0;orthogonalLoop=1;jettySize=auto;html=1;entryX=0;entryY=0.5;entryDx=0;entryDy=0;fontFamily=Helvetica;fontSize=12;fontColor=default;fillColor=#a0522d;strokeColor=#6D1F00;endArrow=none;endFill=0;jumpStyle=arc;jumpSize=5;movable=0;resizable=0;rotatable=0;deletable=0;editable=0;locked=1;connectable=0;" parent="1" source="mcRViTKh0tjIpPPXjqMf-127" target="mcRViTKh0tjIpPPXjqMf-116" edge="1">
          <mxGeometry relative="1" as="geometry" />
        </mxCell>
        <mxCell id="mcRViTKh0tjIpPPXjqMf-127" value="" style="shape=waypoint;sketch=0;fillStyle=solid;size=6;pointerEvents=1;points=[];fillColor=#a20025;resizable=0;rotatable=0;perimeter=centerPerimeter;snapToPoint=1;align=center;verticalAlign=top;fontFamily=Helvetica;fontSize=12;fontColor=#ffffff;strokeColor=#6F0000;movable=0;deletable=0;editable=0;locked=1;connectable=0;container=0;" parent="1" vertex="1">
          <mxGeometry x="333" y="294" width="20" height="20" as="geometry" />
        </mxCell>
        <mxCell id="mcRViTKh0tjIpPPXjqMf-130" style="edgeStyle=orthogonalEdgeStyle;rounded=0;orthogonalLoop=1;jettySize=auto;html=1;entryX=0;entryY=0.5;entryDx=0;entryDy=0;fontFamily=Helvetica;fontSize=12;fontColor=default;fillColor=#a0522d;strokeColor=#6D1F00;endArrow=none;endFill=0;jumpStyle=arc;jumpSize=5;movable=0;resizable=0;rotatable=0;deletable=0;editable=0;locked=1;connectable=0;" parent="1" source="mcRViTKh0tjIpPPXjqMf-129" target="mcRViTKh0tjIpPPXjqMf-101" edge="1">
          <mxGeometry relative="1" as="geometry">
            <Array as="points">
              <mxPoint x="400" y="240" />
            </Array>
          </mxGeometry>
        </mxCell>
        <mxCell id="mcRViTKh0tjIpPPXjqMf-129" value="" style="shape=waypoint;sketch=0;fillStyle=solid;size=6;pointerEvents=1;points=[];fillColor=#a20025;resizable=0;rotatable=0;perimeter=centerPerimeter;snapToPoint=1;align=center;verticalAlign=top;fontFamily=Helvetica;fontSize=12;fontColor=#ffffff;strokeColor=#6F0000;movable=0;deletable=0;editable=0;locked=1;connectable=0;container=0;" parent="1" vertex="1">
          <mxGeometry x="390" y="294" width="20" height="20" as="geometry" />
        </mxCell>
        <mxCell id="mcRViTKh0tjIpPPXjqMf-135" value="reset" style="text;html=1;strokeColor=none;fillColor=none;align=left;verticalAlign=middle;whiteSpace=wrap;rounded=0;fontSize=7;movable=0;resizable=0;rotatable=0;deletable=0;editable=0;locked=1;connectable=0;container=0;" parent="1" vertex="1">
          <mxGeometry x="141" y="135" width="19" height="10" as="geometry" />
        </mxCell>
        <mxCell id="mcRViTKh0tjIpPPXjqMf-136" value="clk" style="text;html=1;strokeColor=none;fillColor=none;align=left;verticalAlign=middle;whiteSpace=wrap;rounded=0;fontSize=7;movable=0;resizable=0;rotatable=0;deletable=0;editable=0;locked=1;connectable=0;container=0;" parent="1" vertex="1">
          <mxGeometry x="141" y="125" width="12" height="10" as="geometry" />
        </mxCell>
        <mxCell id="mcRViTKh0tjIpPPXjqMf-138" value="data_a[3:0]" style="text;html=1;strokeColor=none;fillColor=none;align=left;verticalAlign=middle;whiteSpace=wrap;rounded=0;fontSize=7;movable=0;resizable=0;rotatable=0;deletable=0;editable=0;locked=1;connectable=0;container=0;" parent="1" vertex="1">
          <mxGeometry x="141" y="146" width="19" height="10" as="geometry" />
        </mxCell>
        <mxCell id="mcRViTKh0tjIpPPXjqMf-137" style="edgeStyle=orthogonalEdgeStyle;rounded=0;orthogonalLoop=1;jettySize=auto;html=1;exitX=0;exitY=0.5;exitDx=0;exitDy=0;fontFamily=Helvetica;fontSize=12;fontColor=default;endArrow=none;endFill=0;jumpStyle=arc;movable=0;resizable=0;rotatable=0;deletable=0;editable=0;locked=1;connectable=0;" parent="1" source="mcRViTKh0tjIpPPXjqMf-14" edge="1">
          <mxGeometry relative="1" as="geometry">
            <mxPoint x="143" y="155" as="targetPoint" />
            <Array as="points">
              <mxPoint x="180" y="163" />
              <mxPoint x="180" y="155" />
            </Array>
          </mxGeometry>
        </mxCell>
        <mxCell id="mcRViTKh0tjIpPPXjqMf-140" value="data_a[3:0]" style="text;html=1;strokeColor=none;fillColor=none;align=left;verticalAlign=middle;whiteSpace=wrap;rounded=0;fontSize=7;movable=0;resizable=0;rotatable=0;deletable=0;editable=0;locked=1;connectable=0;container=0;" parent="1" vertex="1">
          <mxGeometry x="141" y="158" width="19" height="10" as="geometry" />
        </mxCell>
        <mxCell id="mcRViTKh0tjIpPPXjqMf-142" value="out[3:0]" style="text;html=1;strokeColor=none;fillColor=none;align=right;verticalAlign=middle;whiteSpace=wrap;rounded=0;fontSize=7;container=0;movable=0;resizable=0;rotatable=0;deletable=0;editable=0;locked=1;connectable=0;" parent="1" vertex="1">
          <mxGeometry x="536" y="200" width="32" height="10" as="geometry" />
        </mxCell>
        <mxCell id="mcRViTKh0tjIpPPXjqMf-143" value="c_out" style="text;html=1;strokeColor=none;fillColor=none;align=right;verticalAlign=middle;whiteSpace=wrap;rounded=0;fontSize=7;container=0;movable=0;resizable=0;rotatable=0;deletable=0;editable=0;locked=1;connectable=0;" parent="1" vertex="1">
          <mxGeometry x="536" y="215" width="32" height="10" as="geometry" />
        </mxCell>
        <mxCell id="mcRViTKh0tjIpPPXjqMf-149" value="" style="edgeStyle=orthogonalEdgeStyle;rounded=0;orthogonalLoop=1;jettySize=auto;html=1;exitX=1;exitY=0.5;exitDx=0;exitDy=0;entryDx=0;entryDy=0;fontFamily=Helvetica;fontSize=12;fontColor=default;endArrow=none;endFill=0;fillColor=#f0a30a;strokeColor=#BD7000;jumpStyle=arc;jumpSize=5;movable=0;resizable=0;rotatable=0;deletable=0;editable=0;locked=1;connectable=0;" parent="1" source="mcRViTKh0tjIpPPXjqMf-44" target="mcRViTKh0tjIpPPXjqMf-147" edge="1">
          <mxGeometry relative="1" as="geometry">
            <mxPoint x="512" y="143" as="sourcePoint" />
            <mxPoint x="447" y="308" as="targetPoint" />
            <Array as="points">
              <mxPoint x="522" y="143" />
              <mxPoint x="522" y="194" />
            </Array>
          </mxGeometry>
        </mxCell>
        <mxCell id="mcRViTKh0tjIpPPXjqMf-147" value="" style="shape=waypoint;sketch=0;fillStyle=solid;size=6;pointerEvents=1;points=[];fillColor=#f0a30a;resizable=0;rotatable=0;perimeter=centerPerimeter;snapToPoint=1;align=center;verticalAlign=top;fontFamily=Helvetica;fontSize=12;fontColor=#000000;strokeColor=#BD7000;movable=0;deletable=0;editable=0;locked=1;connectable=0;container=0;" parent="1" vertex="1">
          <mxGeometry x="512" y="133" width="20" height="20" as="geometry" />
        </mxCell>
        <mxCell id="mcRViTKh0tjIpPPXjqMf-152" value="" style="edgeStyle=orthogonalEdgeStyle;rounded=0;orthogonalLoop=1;jettySize=auto;html=1;entryDx=0;entryDy=0;fontFamily=Helvetica;fontSize=12;fontColor=default;endArrow=none;endFill=0;fillColor=#f0a30a;strokeColor=#BD7000;movable=0;resizable=0;rotatable=0;deletable=0;editable=0;locked=1;connectable=0;entryX=0;entryY=0.5;" parent="1" source="mcRViTKh0tjIpPPXjqMf-147" target="mcRViTKh0tjIpPPXjqMf-41" edge="1">
          <mxGeometry relative="1" as="geometry">
            <mxPoint x="522" y="143" as="sourcePoint" />
            <mxPoint x="380" y="116.00000000000006" as="targetPoint" />
            <Array as="points">
              <mxPoint x="522" y="116" />
              <mxPoint x="378" y="116" />
              <mxPoint x="378" y="133" />
            </Array>
          </mxGeometry>
        </mxCell>
        <mxCell id="mcRViTKh0tjIpPPXjqMf-156" value="" style="rounded=0;whiteSpace=wrap;html=1;pointerEvents=0;align=center;verticalAlign=top;fontFamily=Helvetica;fontSize=12;fontColor=default;fillColor=none;gradientColor=none;movable=0;resizable=0;rotatable=0;deletable=0;editable=0;locked=1;connectable=0;container=0;" parent="1" vertex="1">
          <mxGeometry x="143" y="88" width="427" height="299" as="geometry" />
        </mxCell>
        <mxCell id="mcRViTKh0tjIpPPXjqMf-1" value="" style="rounded=0;whiteSpace=wrap;html=1;movable=0;resizable=0;rotatable=0;deletable=0;editable=0;locked=1;connectable=0;container=0;" parent="1" vertex="1">
          <mxGeometry x="223" y="128" width="120" height="60" as="geometry" />
        </mxCell>
        <mxCell id="mcRViTKh0tjIpPPXjqMf-12" value="reset" style="text;html=1;strokeColor=none;fillColor=none;align=left;verticalAlign=middle;whiteSpace=wrap;rounded=0;fontSize=7;movable=0;resizable=0;rotatable=0;deletable=0;editable=0;locked=1;connectable=0;container=0;" parent="1" vertex="1">
          <mxGeometry x="223" y="138" width="60" height="10" as="geometry" />
        </mxCell>
        <mxCell id="mcRViTKh0tjIpPPXjqMf-13" value="enable" style="text;html=1;strokeColor=none;fillColor=none;align=left;verticalAlign=middle;whiteSpace=wrap;rounded=0;fontSize=7;movable=0;resizable=0;rotatable=0;deletable=0;editable=0;locked=1;connectable=0;container=0;" parent="1" vertex="1">
          <mxGeometry x="223" y="148" width="60" height="10" as="geometry" />
        </mxCell>
        <mxCell id="mcRViTKh0tjIpPPXjqMf-14" value="data_a[3:0]" style="text;html=1;strokeColor=none;fillColor=none;align=left;verticalAlign=middle;whiteSpace=wrap;rounded=0;fontSize=7;movable=0;resizable=0;rotatable=0;deletable=0;editable=0;locked=1;connectable=0;container=0;" parent="1" vertex="1">
          <mxGeometry x="223" y="158" width="60" height="10" as="geometry" />
        </mxCell>
        <mxCell id="mcRViTKh0tjIpPPXjqMf-15" value="clk" style="text;html=1;strokeColor=none;fillColor=none;align=left;verticalAlign=middle;whiteSpace=wrap;rounded=0;fontSize=7;movable=0;resizable=0;rotatable=0;deletable=0;editable=0;locked=1;connectable=0;container=0;" parent="1" vertex="1">
          <mxGeometry x="223" y="128" width="60" height="10" as="geometry" />
        </mxCell>
        <mxCell id="mcRViTKh0tjIpPPXjqMf-16" value="wire_a" style="text;html=1;strokeColor=none;fillColor=none;align=right;verticalAlign=middle;whiteSpace=wrap;rounded=0;fontSize=7;movable=0;resizable=0;rotatable=0;deletable=0;editable=0;locked=1;connectable=0;container=0;" parent="1" vertex="1">
          <mxGeometry x="283" y="128" width="60" height="10" as="geometry" />
        </mxCell>
        <mxCell id="mcRViTKh0tjIpPPXjqMf-17" value="&lt;font style=&quot;font-size: 8px;&quot;&gt;piso_a&lt;/font&gt;" style="text;html=1;strokeColor=none;fillColor=none;align=center;verticalAlign=middle;whiteSpace=wrap;rounded=0;movable=0;resizable=0;rotatable=0;deletable=0;editable=0;locked=1;connectable=0;container=0;" parent="1" vertex="1">
          <mxGeometry x="252" y="141" width="60" height="30" as="geometry" />
        </mxCell>
        <mxCell id="mcRViTKh0tjIpPPXjqMf-20" value="" style="rounded=0;whiteSpace=wrap;html=1;movable=0;resizable=0;rotatable=0;deletable=0;editable=0;locked=1;connectable=0;container=0;" parent="1" vertex="1">
          <mxGeometry x="224" y="215" width="120" height="60" as="geometry" />
        </mxCell>
        <mxCell id="mcRViTKh0tjIpPPXjqMf-21" value="reset" style="text;html=1;strokeColor=none;fillColor=none;align=left;verticalAlign=middle;whiteSpace=wrap;rounded=0;fontSize=7;movable=0;resizable=0;rotatable=0;deletable=0;editable=0;locked=1;connectable=0;container=0;" parent="1" vertex="1">
          <mxGeometry x="224" y="225" width="60" height="10" as="geometry" />
        </mxCell>
        <mxCell id="mcRViTKh0tjIpPPXjqMf-22" value="enable" style="text;html=1;strokeColor=none;fillColor=none;align=left;verticalAlign=middle;whiteSpace=wrap;rounded=0;fontSize=7;movable=0;resizable=0;rotatable=0;deletable=0;editable=0;locked=1;connectable=0;container=0;" parent="1" vertex="1">
          <mxGeometry x="224" y="235" width="60" height="10" as="geometry" />
        </mxCell>
        <mxCell id="mcRViTKh0tjIpPPXjqMf-139" style="edgeStyle=orthogonalEdgeStyle;rounded=0;orthogonalLoop=1;jettySize=auto;html=1;exitX=0;exitY=0.5;exitDx=0;exitDy=0;fontFamily=Helvetica;fontSize=12;fontColor=default;endArrow=none;endFill=0;movable=0;resizable=0;rotatable=0;deletable=0;editable=0;locked=1;connectable=0;" parent="1" source="mcRViTKh0tjIpPPXjqMf-23" edge="1">
          <mxGeometry relative="1" as="geometry">
            <mxPoint x="143" y="167" as="targetPoint" />
            <Array as="points">
              <mxPoint x="180" y="250" />
              <mxPoint x="180" y="167" />
              <mxPoint x="143" y="167" />
            </Array>
          </mxGeometry>
        </mxCell>
        <mxCell id="mcRViTKh0tjIpPPXjqMf-23" value="data_b[3:0]" style="text;html=1;strokeColor=none;fillColor=none;align=left;verticalAlign=middle;whiteSpace=wrap;rounded=0;fontSize=7;movable=0;resizable=0;rotatable=0;deletable=0;editable=0;locked=1;connectable=0;container=0;" parent="1" vertex="1">
          <mxGeometry x="224" y="245" width="60" height="10" as="geometry" />
        </mxCell>
        <mxCell id="mcRViTKh0tjIpPPXjqMf-24" value="clk" style="text;html=1;strokeColor=none;fillColor=none;align=left;verticalAlign=middle;whiteSpace=wrap;rounded=0;fontSize=7;movable=0;resizable=0;rotatable=0;deletable=0;editable=0;locked=1;connectable=0;container=0;" parent="1" vertex="1">
          <mxGeometry x="224" y="215" width="60" height="10" as="geometry" />
        </mxCell>
        <mxCell id="mcRViTKh0tjIpPPXjqMf-25" value="wire_b" style="text;html=1;strokeColor=none;fillColor=none;align=right;verticalAlign=middle;whiteSpace=wrap;rounded=0;fontSize=7;movable=0;resizable=0;rotatable=0;deletable=0;editable=0;locked=1;connectable=0;container=0;" parent="1" vertex="1">
          <mxGeometry x="284" y="215" width="60" height="10" as="geometry" />
        </mxCell>
        <mxCell id="mcRViTKh0tjIpPPXjqMf-26" value="&lt;font style=&quot;font-size: 8px;&quot;&gt;piso_b&lt;/font&gt;" style="text;html=1;strokeColor=none;fillColor=none;align=center;verticalAlign=middle;whiteSpace=wrap;rounded=0;movable=0;resizable=0;rotatable=0;deletable=0;editable=0;locked=1;connectable=0;container=0;" parent="1" vertex="1">
          <mxGeometry x="253" y="228" width="60" height="30" as="geometry" />
        </mxCell>
        <mxCell id="mcRViTKh0tjIpPPXjqMf-38" value="" style="rounded=0;whiteSpace=wrap;html=1;movable=0;resizable=0;rotatable=0;deletable=0;editable=0;locked=1;connectable=0;container=0;" parent="1" vertex="1">
          <mxGeometry x="392" y="128" width="120" height="60" as="geometry" />
        </mxCell>
        <mxCell id="mcRViTKh0tjIpPPXjqMf-39" value="wire_a" style="text;html=1;strokeColor=none;fillColor=none;align=left;verticalAlign=middle;whiteSpace=wrap;rounded=0;fontSize=7;movable=0;resizable=0;rotatable=0;deletable=0;editable=0;locked=1;connectable=0;container=0;" parent="1" vertex="1">
          <mxGeometry x="392" y="138" width="60" height="10" as="geometry" />
        </mxCell>
        <mxCell id="mcRViTKh0tjIpPPXjqMf-40" value="wire_b" style="text;html=1;strokeColor=none;fillColor=none;align=left;verticalAlign=middle;whiteSpace=wrap;rounded=0;fontSize=7;movable=0;resizable=0;rotatable=0;deletable=0;editable=0;locked=1;connectable=0;container=0;" parent="1" vertex="1">
          <mxGeometry x="392" y="148" width="60" height="10" as="geometry" />
        </mxCell>
        <mxCell id="mcRViTKh0tjIpPPXjqMf-41" value="c_in" style="text;html=1;strokeColor=none;fillColor=none;align=left;verticalAlign=middle;whiteSpace=wrap;rounded=0;fontSize=7;movable=0;resizable=0;rotatable=0;deletable=0;editable=0;locked=1;connectable=0;container=0;" parent="1" vertex="1">
          <mxGeometry x="392" y="128" width="60" height="10" as="geometry" />
        </mxCell>
        <mxCell id="mcRViTKh0tjIpPPXjqMf-42" value="sum" style="text;html=1;strokeColor=none;fillColor=none;align=right;verticalAlign=middle;whiteSpace=wrap;rounded=0;fontSize=7;movable=0;resizable=0;rotatable=0;deletable=0;editable=0;locked=1;connectable=0;container=0;" parent="1" vertex="1">
          <mxGeometry x="452" y="128" width="60" height="10" as="geometry" />
        </mxCell>
        <mxCell id="mcRViTKh0tjIpPPXjqMf-43" value="&lt;font style=&quot;font-size: 8px;&quot;&gt;full_adder&lt;/font&gt;" style="text;html=1;strokeColor=none;fillColor=none;align=center;verticalAlign=middle;whiteSpace=wrap;rounded=0;movable=0;resizable=0;rotatable=0;deletable=0;editable=0;locked=1;connectable=0;container=0;" parent="1" vertex="1">
          <mxGeometry x="421" y="141" width="60" height="30" as="geometry" />
        </mxCell>
        <mxCell id="mcRViTKh0tjIpPPXjqMf-44" value="cout_temp" style="text;html=1;strokeColor=none;fillColor=none;align=right;verticalAlign=middle;whiteSpace=wrap;rounded=0;fontSize=7;movable=0;resizable=0;rotatable=0;deletable=0;editable=0;locked=1;connectable=0;container=0;" parent="1" vertex="1">
          <mxGeometry x="452" y="138" width="60" height="10" as="geometry" />
        </mxCell>
        <mxCell id="mcRViTKh0tjIpPPXjqMf-47" value="" style="rounded=0;whiteSpace=wrap;html=1;container=0;movable=0;resizable=0;rotatable=0;deletable=0;editable=0;locked=1;connectable=0;" parent="1" vertex="1">
          <mxGeometry x="447" y="205" width="64" height="60" as="geometry" />
        </mxCell>
        <mxCell id="mcRViTKh0tjIpPPXjqMf-48" value="reset" style="text;html=1;strokeColor=none;fillColor=none;align=left;verticalAlign=middle;whiteSpace=wrap;rounded=0;fontSize=7;container=0;movable=0;resizable=0;rotatable=0;deletable=0;editable=0;locked=1;connectable=0;" parent="1" vertex="1">
          <mxGeometry x="447" y="215" width="32" height="10" as="geometry" />
        </mxCell>
        <mxCell id="mcRViTKh0tjIpPPXjqMf-49" value="sum" style="text;html=1;strokeColor=none;fillColor=none;align=left;verticalAlign=middle;whiteSpace=wrap;rounded=0;fontSize=7;container=0;movable=0;resizable=0;rotatable=0;deletable=0;editable=0;locked=1;connectable=0;" parent="1" vertex="1">
          <mxGeometry x="447" y="225" width="32" height="10" as="geometry" />
        </mxCell>
        <mxCell id="mcRViTKh0tjIpPPXjqMf-51" value="clk" style="text;html=1;strokeColor=none;fillColor=none;align=left;verticalAlign=middle;whiteSpace=wrap;rounded=0;fontSize=7;container=0;movable=0;resizable=0;rotatable=0;deletable=0;editable=0;locked=1;connectable=0;" parent="1" vertex="1">
          <mxGeometry x="447" y="205" width="32" height="10" as="geometry" />
        </mxCell>
        <mxCell id="mcRViTKh0tjIpPPXjqMf-133" style="edgeStyle=orthogonalEdgeStyle;rounded=0;orthogonalLoop=1;jettySize=auto;html=1;exitX=1;exitY=0.5;exitDx=0;exitDy=0;fontFamily=Helvetica;fontSize=12;fontColor=default;jumpStyle=arc;endArrow=none;endFill=0;movable=0;resizable=0;rotatable=0;deletable=0;editable=0;locked=1;connectable=0;" parent="1" source="mcRViTKh0tjIpPPXjqMf-52" edge="1">
          <mxGeometry relative="1" as="geometry">
            <mxPoint x="570" y="210" as="targetPoint" />
          </mxGeometry>
        </mxCell>
        <mxCell id="mcRViTKh0tjIpPPXjqMf-52" value="out[3:0]" style="text;html=1;strokeColor=none;fillColor=none;align=right;verticalAlign=middle;whiteSpace=wrap;rounded=0;fontSize=7;container=0;movable=0;resizable=0;rotatable=0;deletable=0;editable=0;locked=1;connectable=0;" parent="1" vertex="1">
          <mxGeometry x="479" y="205" width="32" height="10" as="geometry" />
        </mxCell>
        <mxCell id="mcRViTKh0tjIpPPXjqMf-53" value="&lt;font style=&quot;font-size: 6px;&quot;&gt;4-bit_shift_register&lt;/font&gt;" style="text;html=1;strokeColor=none;fillColor=none;align=center;verticalAlign=middle;whiteSpace=wrap;rounded=0;container=0;movable=0;resizable=0;rotatable=0;deletable=0;editable=0;locked=1;connectable=0;" parent="1" vertex="1">
          <mxGeometry x="450" y="254" width="58" height="10" as="geometry" />
        </mxCell>
        <mxCell id="mcRViTKh0tjIpPPXjqMf-101" value="enable" style="text;html=1;strokeColor=none;fillColor=none;align=left;verticalAlign=middle;whiteSpace=wrap;rounded=0;fontSize=7;container=0;movable=0;resizable=0;rotatable=0;deletable=0;editable=0;locked=1;connectable=0;" parent="1" vertex="1">
          <mxGeometry x="447" y="235" width="32" height="10" as="geometry" />
        </mxCell>
        <mxCell id="mcRViTKh0tjIpPPXjqMf-58" value="" style="rounded=0;whiteSpace=wrap;html=1;container=0;movable=0;resizable=0;rotatable=0;deletable=0;editable=0;locked=1;connectable=0;" parent="1" vertex="1">
          <mxGeometry x="447" y="283" width="64" height="60" as="geometry" />
        </mxCell>
        <mxCell id="mcRViTKh0tjIpPPXjqMf-59" value="reset" style="text;html=1;strokeColor=none;fillColor=none;align=left;verticalAlign=middle;whiteSpace=wrap;rounded=0;fontSize=7;container=0;movable=0;resizable=0;rotatable=0;deletable=0;editable=0;locked=1;connectable=0;" parent="1" vertex="1">
          <mxGeometry x="447" y="293" width="32" height="10" as="geometry" />
        </mxCell>
        <mxCell id="mcRViTKh0tjIpPPXjqMf-60" value="cout_temp" style="text;html=1;strokeColor=none;fillColor=none;align=left;verticalAlign=middle;whiteSpace=wrap;rounded=0;fontSize=7;container=0;movable=0;resizable=0;rotatable=0;deletable=0;editable=0;locked=1;connectable=0;" parent="1" vertex="1">
          <mxGeometry x="447" y="303" width="32" height="10" as="geometry" />
        </mxCell>
        <mxCell id="mcRViTKh0tjIpPPXjqMf-61" value="clk" style="text;html=1;strokeColor=none;fillColor=none;align=left;verticalAlign=middle;whiteSpace=wrap;rounded=0;fontSize=7;container=0;movable=0;resizable=0;rotatable=0;deletable=0;editable=0;locked=1;connectable=0;" parent="1" vertex="1">
          <mxGeometry x="447" y="283" width="32" height="10" as="geometry" />
        </mxCell>
        <mxCell id="mcRViTKh0tjIpPPXjqMf-131" style="edgeStyle=orthogonalEdgeStyle;rounded=0;orthogonalLoop=1;jettySize=auto;html=1;fontFamily=Helvetica;fontSize=12;fontColor=default;jumpStyle=arc;endArrow=none;endFill=0;movable=0;resizable=0;rotatable=0;deletable=0;editable=0;locked=1;connectable=0;" parent="1" source="mcRViTKh0tjIpPPXjqMf-62" edge="1">
          <mxGeometry relative="1" as="geometry">
            <mxPoint x="570" y="225" as="targetPoint" />
            <Array as="points">
              <mxPoint x="525" y="288" />
              <mxPoint x="525" y="225" />
            </Array>
          </mxGeometry>
        </mxCell>
        <mxCell id="mcRViTKh0tjIpPPXjqMf-62" value="c_out" style="text;html=1;strokeColor=none;fillColor=none;align=right;verticalAlign=middle;whiteSpace=wrap;rounded=0;fontSize=7;container=0;movable=0;resizable=0;rotatable=0;deletable=0;editable=0;locked=1;connectable=0;" parent="1" vertex="1">
          <mxGeometry x="479" y="283" width="32" height="10" as="geometry" />
        </mxCell>
        <mxCell id="mcRViTKh0tjIpPPXjqMf-63" value="&lt;font style=&quot;font-size: 8px;&quot;&gt;DFF&lt;/font&gt;" style="text;html=1;strokeColor=none;fillColor=none;align=center;verticalAlign=middle;whiteSpace=wrap;rounded=0;container=0;movable=0;resizable=0;rotatable=0;deletable=0;editable=0;locked=1;connectable=0;" parent="1" vertex="1">
          <mxGeometry x="464" y="333" width="32" height="10" as="geometry" />
        </mxCell>
        <mxCell id="mcRViTKh0tjIpPPXjqMf-116" value="enable" style="text;html=1;strokeColor=none;fillColor=none;align=left;verticalAlign=middle;whiteSpace=wrap;rounded=0;fontSize=7;container=0;movable=0;resizable=0;rotatable=0;deletable=0;editable=0;locked=1;connectable=0;" parent="1" vertex="1">
          <mxGeometry x="447" y="313" width="32" height="10" as="geometry" />
        </mxCell>
        <mxCell id="mcRViTKh0tjIpPPXjqMf-66" value="" style="rounded=0;whiteSpace=wrap;html=1;movable=0;resizable=0;rotatable=0;deletable=0;editable=0;locked=1;connectable=0;container=0;" parent="1" vertex="1">
          <mxGeometry x="245" y="299" width="78" height="60" as="geometry" />
        </mxCell>
        <mxCell id="mcRViTKh0tjIpPPXjqMf-67" value="reset" style="text;html=1;strokeColor=none;fillColor=none;align=left;verticalAlign=middle;whiteSpace=wrap;rounded=0;fontSize=7;movable=0;resizable=0;rotatable=0;deletable=0;editable=0;locked=1;connectable=0;container=0;" parent="1" vertex="1">
          <mxGeometry x="245" y="309" width="39" height="10" as="geometry" />
        </mxCell>
        <mxCell id="mcRViTKh0tjIpPPXjqMf-70" value="clk" style="text;html=1;strokeColor=none;fillColor=none;align=left;verticalAlign=middle;whiteSpace=wrap;rounded=0;fontSize=7;movable=0;resizable=0;rotatable=0;deletable=0;editable=0;locked=1;connectable=0;container=0;" parent="1" vertex="1">
          <mxGeometry x="245" y="299" width="39" height="10" as="geometry" />
        </mxCell>
        <mxCell id="mcRViTKh0tjIpPPXjqMf-71" value="enable" style="text;html=1;strokeColor=none;fillColor=none;align=right;verticalAlign=middle;whiteSpace=wrap;rounded=0;fontSize=7;movable=0;resizable=0;rotatable=0;deletable=0;editable=0;locked=1;connectable=0;container=0;" parent="1" vertex="1">
          <mxGeometry x="284" y="299" width="39" height="10" as="geometry" />
        </mxCell>
        <mxCell id="mcRViTKh0tjIpPPXjqMf-72" value="&lt;span style=&quot;font-size: 8px;&quot;&gt;count4_enable&lt;/span&gt;" style="text;html=1;strokeColor=none;fillColor=none;align=center;verticalAlign=middle;whiteSpace=wrap;rounded=0;movable=0;resizable=0;rotatable=0;deletable=0;editable=0;locked=1;connectable=0;container=0;" parent="1" vertex="1">
          <mxGeometry x="263.85" y="312" width="39" height="30" as="geometry" />
        </mxCell>
      </root>
    </mxGraphModel>
  </diagram>
</mxfile>
